<?xml version="1.0" encoding="UTF-8"?>
<svg width="994px" height="143px" viewBox="0 0 994 143" version="1.1" xmlns="http://www.w3.org/2000/svg" xmlns:xlink="http://www.w3.org/1999/xlink">
    <title>airserver-primary-lockup-white</title>
    <g id="Page-1" stroke="none" stroke-width="1" fill="none" fill-rule="evenodd">
        <g id="airserver-primary-lockup-white" fill="#FFFFFF">
            <polygon id="Path" points="200 20 200 140 0 140 0 20 62.861 19.999 45.718 39.999 20 40 20 120 180 120 180 40 154.282 39.999 137.139 19.999"></polygon>
            <polygon id="Path-2" points="100 0 160 70 40 70"></polygon>
            <g id="AirServer" transform="translate(247.140000, 18.010000)" fill-rule="nonzero">
                <path d="M120.549771,121.989171 L73.4094127,1.97917534 L47.1403582,1.97917534 L0,121.989171 L23.9300292,121.989171 L32.7463557,98.7788421 L87.8034152,98.7788421 L96.6197418,121.989171 L120.549771,121.989171 Z M81.8658892,80.2465639 L38.6838817,80.2465639 L60.2748855,23.030404 L81.8658892,80.2465639 Z" id="Shape"></path>
                <path d="M130.81,1.08 L154.2,1.08 L154.2,24.47 L130.81,24.47 L130.81,1.08 Z M151.856726,121.989171 L151.856726,35.0853811 L132.964598,35.0853811 L132.964598,121.989171 L151.856726,121.989171 Z" id="Shape"></path>
                <path d="M195.218659,121.989171 L195.218659,62.7938359 C198.997085,56.4964598 209.612661,51.0987089 217.709288,51.0987089 C220.048313,51.0987089 221.847564,51.2786339 223.466889,51.638484 L223.466889,32.9262807 C212.311537,32.9262807 201.875885,39.4035818 195.218659,47.6801333 L195.218659,35.0853811 L176.326531,35.0853811 L176.326531,121.989171 L195.218659,121.989171 Z" id="Path"></path>
                <path d="M280.503124,124.148272 C312.709704,124.148272 326.923782,106.875469 326.923782,86.9037901 C326.923782,42.2823823 257.11287,56.1366097 257.11287,33.6459808 C257.11287,24.8296543 265.029571,18.7122032 277.264473,18.7122032 C289.859225,18.7122032 302.633903,23.030404 312.169929,32.5664307 L324.044981,16.9129529 C313.069554,6.11745106 297.775927,0 279.243648,0 C252.794669,0 235.521866,15.2936277 235.521866,35.2653061 C235.521866,79.3469388 305.332778,63.6934611 305.332778,88.8829654 C305.332778,96.9795918 298.675552,105.436068 281.402749,105.436068 C264.669721,105.436068 251.535194,97.5193669 243.438567,88.7030404 L231.563515,105.076218 C242.359017,116.23157 258.372345,124.148272 280.503124,124.148272 Z" id="Path"></path>
                <path d="M385.939192,124.148272 C399.613494,124.148272 412.388172,119.650146 421.204498,111.373594 L412.568097,98.9587672 C406.270721,105.256143 396.374844,108.674719 387.738442,108.674719 C371.365264,108.674719 361.649313,97.699292 360.209913,84.7446897 L427.142024,84.7446897 L427.142024,80.0666389 C427.142024,52.7180342 410.588921,32.9262807 384.499792,32.9262807 C358.770512,32.9262807 340.418159,53.2578092 340.418159,78.4473136 C340.418159,105.975843 359.670137,124.148272 385.939192,124.148272 Z M408.969596,71.2503124 L360.029988,71.2503124 C360.749688,60.8146606 368.306539,48.3998334 384.319867,48.3998334 C401.412745,48.3998334 408.429821,60.9945856 408.969596,71.2503124 Z" id="Shape"></path>
                <path d="M464.746356,121.989171 L464.746356,62.7938359 C468.524781,56.4964598 479.140358,51.0987089 487.236985,51.0987089 C489.57601,51.0987089 491.37526,51.2786339 492.994586,51.638484 L492.994586,32.9262807 C481.839234,32.9262807 471.403582,39.4035818 464.746356,47.6801333 L464.746356,35.0853811 L445.854227,35.0853811 L445.854227,121.989171 L464.746356,121.989171 Z" id="Path"></path>
                <polygon id="Path" points="556.46676 121.989171 591.911991 35.0853811 571.760387 35.0853811 546.390958 100.218242 521.021529 35.0853811 500.69 35.0853811 536.135231 121.989171"></polygon>
                <path d="M639.093711,124.148272 C652.768013,124.148272 665.542691,119.650146 674.359017,111.373594 L665.722616,98.9587672 C659.425239,105.256143 649.529363,108.674719 640.892961,108.674719 C624.519783,108.674719 614.803832,97.699292 613.364431,84.7446897 L680.296543,84.7446897 L680.296543,80.0666389 C680.296543,52.7180342 663.74344,32.9262807 637.654311,32.9262807 C611.925031,32.9262807 593.572678,53.2578092 593.572678,78.4473136 C593.572678,105.975843 612.824656,124.148272 639.093711,124.148272 Z M662.124115,71.2503124 L613.184506,71.2503124 C613.904207,60.8146606 621.461058,48.3998334 637.474386,48.3998334 C654.567264,48.3998334 661.58434,60.9945856 662.124115,71.2503124 Z" id="Shape"></path>
                <path d="M717.900875,121.989171 L717.900875,62.7938359 C721.6793,56.4964598 732.294877,51.0987089 740.391504,51.0987089 C742.730529,51.0987089 744.529779,51.2786339 746.149105,51.638484 L746.149105,32.9262807 C734.993753,32.9262807 724.558101,39.4035818 717.900875,47.6801333 L717.900875,35.0853811 L699.008746,35.0853811 L699.008746,121.989171 L717.900875,121.989171 Z" id="Path"></path>
            </g>
        </g>
    </g>
</svg>