<svg width="180" height="33" viewBox="0 0 180 33" fill="none" xmlns="http://www.w3.org/2000/svg">
<g opacity="0.9" clip-path="url(#clip0_2853_16259)">
<path d="M117.035 27.156L109.963 11.8924C109.787 11.5183 109.253 11.5183 109.082 11.8924L102.149 27.1515C102.073 27.3228 101.896 27.4354 101.707 27.4354H99.9532C99.6007 27.4354 99.3657 27.0703 99.5148 26.7503L109.082 5.81134C109.253 5.43268 109.791 5.43268 109.963 5.81134L119.53 26.7503C119.675 27.0703 119.444 27.4354 119.092 27.4354H117.483C117.293 27.4354 117.121 27.3273 117.044 27.156H117.035Z" fill="white"/>
<path d="M74.8498 4.84766H73.2545C72.9875 4.84766 72.771 5.06361 72.771 5.33V26.9541C72.771 27.2205 72.9875 27.4364 73.2545 27.4364H74.8498C75.1168 27.4364 75.3333 27.2205 75.3333 26.9541V5.33C75.3333 5.06361 75.1168 4.84766 74.8498 4.84766Z" fill="white"/>
<path d="M126.024 14.323L126.047 26.9585C126.047 27.2245 126.264 27.4408 126.535 27.4408H128.125C128.392 27.4363 128.609 27.2199 128.609 26.9495L128.586 16.8023C128.586 16.6716 128.541 16.5454 128.46 16.4462L126.602 14.1202C126.408 13.8767 126.02 14.0165 126.02 14.323H126.024Z" fill="white"/>
<path d="M146.595 26.9484L146.568 5.33781C146.568 5.07184 146.351 4.85547 146.08 4.85547H144.489C144.222 4.85998 144.005 5.07635 144.005 5.34682L144.024 23.6441L128.93 5.03578C128.839 4.92309 128.699 4.85547 128.555 4.85547H126.508C126.101 4.85547 125.875 5.32879 126.132 5.64434L143.667 27.2594C143.757 27.3721 143.892 27.4352 144.037 27.4398L146.107 27.4668C146.401 27.4668 146.599 27.2279 146.595 26.9754C146.595 26.9664 146.595 26.9619 146.595 26.9529V26.9484Z" fill="white"/>
<path d="M0.013658 0.589123L0.763828 3.57331C0.809018 3.74912 0.944591 3.88435 1.12536 3.92042L14.764 6.91362C15.1888 7.00829 15.5096 7.37342 15.5367 7.81068L16.6575 23.8992C16.6665 24.0119 16.7117 24.1155 16.7885 24.1967L17.132 24.5528C17.2224 24.6475 17.3444 24.7016 17.4754 24.7016C17.6065 24.7016 17.7285 24.6475 17.8189 24.5528L18.1623 24.1967C18.2392 24.1155 18.2844 24.0119 18.2934 23.8992L19.4141 7.81068C19.4458 7.37793 19.7621 7.00829 20.1869 6.91362L33.8255 3.92042C34.0018 3.87985 34.1418 3.74912 34.187 3.57331L34.9372 0.589123C34.9779 0.426841 34.9372 0.264558 34.8152 0.142847C34.6977 0.0211349 34.535 -0.0284513 34.3723 0.00761142L17.6833 3.66347C17.5432 3.69503 17.3986 3.69503 17.2585 3.66347L0.578545 0.0121193C0.542392 -0.00140426 0.510758 -0.00140426 0.474606 -0.00140426C0.348071 -0.00140426 0.226055 0.048182 0.135674 0.142847C0.0181771 0.264558 -0.0270138 0.426841 0.013658 0.589123Z" fill="white"/>
<path d="M23.0337 32.2981L23.8246 32.0907C23.9647 32.0546 24.0731 31.9465 24.0957 31.8067L27.7517 14.0368C27.8104 13.7032 28.068 13.4328 28.4024 13.3516L31.7556 12.5447C31.8866 12.5132 31.986 12.414 32.0177 12.2833L32.813 9.10974C32.8447 8.98803 32.813 8.86181 32.7181 8.77165C32.6504 8.70403 32.56 8.66797 32.4696 8.66797C32.4425 8.66797 32.4108 8.66797 32.3837 8.67698L24.3307 10.6199C24.1771 10.6559 24.0686 10.7867 24.0596 10.9399L22.5954 31.9239C22.5863 32.0366 22.6315 32.1448 22.7219 32.2214C22.8078 32.2936 22.9253 32.3206 23.0382 32.2936L23.0337 32.2981Z" fill="white"/>
<path d="M10.9951 10.6238L2.94212 8.68089C2.915 8.67188 2.88337 8.67188 2.85625 8.67188C2.76135 8.67188 2.67549 8.70794 2.6077 8.77556C2.51732 8.86571 2.48569 8.98742 2.5128 9.11364L3.30816 12.2872C3.3398 12.4179 3.43922 12.5171 3.57027 12.5486L6.92344 13.3555C7.25785 13.4367 7.51544 13.7071 7.57419 14.0452L11.2301 31.8016C11.2572 31.9459 11.3612 32.0586 11.4968 32.0901L12.2966 32.2975C12.4051 32.3245 12.5181 32.2975 12.6039 32.2208C12.6898 32.1487 12.7395 32.0405 12.7305 31.9233L11.2663 10.9393C11.2572 10.7815 11.1443 10.6553 10.9951 10.6193V10.6238Z" fill="white"/>
<path d="M88.8815 12.3516V26.9479C88.8815 27.2139 89.0984 27.4303 89.365 27.4303H90.9557C91.2224 27.4303 91.4393 27.2139 91.4393 26.9479V12.3516H88.877H88.8815Z" fill="white"/>
<path d="M97.3367 4.85938H82.984C82.7174 4.85938 82.5005 5.07575 82.5005 5.34171V6.92847C82.5005 7.19444 82.7174 7.41081 82.984 7.41081H97.3367C97.6033 7.41081 97.8202 7.19444 97.8202 6.92847V5.34171C97.8202 5.07575 97.6033 4.85938 97.3367 4.85938Z" fill="white"/>
<path d="M65.1067 4.85938H50.7541C50.4874 4.85938 50.2705 5.07575 50.2705 5.34171V6.92397C50.2705 7.18993 50.4874 7.40631 50.7541 7.40631H56.1634C56.1634 7.40631 56.195 7.41532 56.2131 7.41532H59.6431C59.6431 7.41532 59.6747 7.40631 59.6928 7.40631H65.1022C65.3688 7.40631 65.5857 7.18993 65.5857 6.92397V5.34171C65.5857 5.07575 65.3688 4.85938 65.1022 4.85938H65.1067Z" fill="white"/>
<path d="M56.6515 12.3516V26.8623C56.6515 27.1283 56.8684 27.3446 57.135 27.3446H58.7258C58.9924 27.3446 59.2093 27.1283 59.2093 26.8623V12.3516H56.647H56.6515Z" fill="white"/>
<path d="M157.526 17.0041C156.501 16.4316 155.696 15.6473 155.109 14.6465C154.521 13.6503 154.228 12.5323 154.228 11.3017C154.228 10.0711 154.521 8.95311 155.109 7.95688C155.696 6.96065 156.501 6.17177 157.526 5.59928C158.552 5.02678 159.7 4.73828 160.975 4.73828C162.249 4.73828 163.397 5.02227 164.423 5.59026C165.448 6.15825 166.253 6.93811 166.84 7.93885C167.428 8.93959 167.722 10.0575 167.722 11.3017C167.722 12.5459 167.428 13.6683 166.84 14.6645C166.253 15.6608 165.448 16.4451 164.423 17.0131C163.397 17.5811 162.249 17.8651 160.975 17.8651C159.7 17.8651 158.552 17.5766 157.526 17.0041ZM163.921 16.2558C164.798 15.7645 165.489 15.0838 165.995 14.2138C166.501 13.3437 166.754 12.3746 166.754 11.3017C166.754 10.2288 166.501 9.25965 165.995 8.38963C165.489 7.51962 164.798 6.83893 163.921 6.34758C163.044 5.85623 162.064 5.60829 160.975 5.60829C159.885 5.60829 158.9 5.85623 158.019 6.34758C157.138 6.83893 156.442 7.51962 155.936 8.38963C155.43 9.25965 155.177 10.2288 155.177 11.3017C155.177 12.3746 155.43 13.3437 155.936 14.2138C156.442 15.0838 157.138 15.7645 158.019 16.2558C158.9 16.7472 159.885 16.9951 160.975 16.9951C162.064 16.9951 163.044 16.7472 163.921 16.2558Z" fill="white"/>
<path d="M172.616 17.375C171.757 17.0504 171.089 16.6267 170.605 16.1083L171.03 15.405C171.486 15.8874 172.101 16.275 172.874 16.5771C173.646 16.8791 174.46 17.0279 175.309 17.0279C176.543 17.0279 177.479 16.7935 178.107 16.3246C178.735 15.8558 179.051 15.2473 179.051 14.4945C179.051 13.9174 178.884 13.4531 178.55 13.106C178.215 12.7634 177.804 12.4975 177.307 12.3127C176.814 12.1278 176.145 11.9385 175.305 11.7402C174.356 11.5058 173.592 11.2804 173.018 11.055C172.444 10.8341 171.956 10.4915 171.554 10.0272C171.152 9.56287 170.953 8.9453 170.953 8.16995C170.953 7.54336 171.12 6.96636 171.455 6.44345C171.789 5.92054 172.3 5.50582 172.982 5.19478C173.669 4.88824 174.523 4.73047 175.549 4.73047C176.263 4.73047 176.968 4.83415 177.659 5.04602C178.351 5.25338 178.952 5.53737 179.458 5.898L179.105 6.65532C178.586 6.2992 178.016 6.02873 177.393 5.84391C176.769 5.65908 176.154 5.56442 175.549 5.56442C174.351 5.56442 173.443 5.80333 172.824 6.28567C172.205 6.76801 171.897 7.39009 171.897 8.15192C171.897 8.72892 172.065 9.19323 172.399 9.53583C172.733 9.88293 173.145 10.1444 173.642 10.3292C174.134 10.514 174.808 10.7124 175.662 10.9197C176.611 11.1541 177.375 11.3795 177.939 11.6049C178.509 11.8258 178.992 12.1639 179.395 12.6102C179.797 13.061 179.996 13.665 179.996 14.4313C179.996 15.0579 179.824 15.6349 179.485 16.1488C179.146 16.6672 178.622 17.0774 177.921 17.3885C177.221 17.6995 176.353 17.8483 175.327 17.8483C174.378 17.8483 173.47 17.686 172.611 17.3569L172.616 17.375Z" fill="white"/>
</g>
<defs>
<clipPath id="clip0_2853_16259">
<rect width="180" height="32.3077" fill="white"/>
</clipPath>
</defs>
</svg>
